<?xml version="1.0" encoding="UTF-8"?>
<svg xmlns="http://www.w3.org/2000/svg" viewBox="-46.09 81.16 168.18 168.18">
  <defs>
    <linearGradient id="bg" x1="0" y1="0" x2="0.1" y2="1">
      <stop offset="0%" stop-color="#111"/>
      <stop offset="100%" stop-color="#050505"/>
    </linearGradient>
  </defs>
  <rect x="-46.09" y="81.16" width="168.18" height="168.18" rx="23.54" fill="url(#bg)"/>
  <g transform="translate(-257.331936,1220.000000) scale(0.100000,-0.100000)" fill="#f2ece4" stroke="none">
      <path d="M2584 11076 c-3 -8 -1 -23 5 -35 7 -13 11 -177 11 -502 0 -428 -2
-484 -16 -500 -9 -10 -13 -23 -9 -28 7 -13 223 -15 243 -3 10 7 13 118 13 531
0 380 -4 527 -12 537 -8 10 -40 14 -121 14 -85 0 -110 -3 -114 -14z"/>
      <path d="M3100 11079 c-8 -6 -11 -12 -5 -15 104 -45 126 -61 157 -114 18 -30
41 -56 51 -58 15 -3 17 6 17 82 0 112 -5 116 -118 116 -48 0 -94 -5 -102 -11z"/>
      <path d="M3092 10688 c-5 -7 -13 -23 -16 -36 -7 -20 -61 -67 -112 -98 -16 -9
-11 -15 40 -49 35 -23 64 -52 74 -72 9 -18 22 -33 29 -33 10 0 13 33 13 150 0
83 -4 150 -9 150 -5 0 -13 -6 -19 -12z"/>
      <path d="M3301 10193 c-23 -54 -87 -112 -156 -144 -44 -19 -64 -34 -58 -40 5
-5 62 -8 129 -7 l119 3 3 108 c2 87 0 107 -11 107 -8 0 -20 -12 -26 -27z"/>
  </g>
</svg>