<?xml version="1.0" encoding="UTF-8"?>
<svg xmlns="http://www.w3.org/2000/svg" 
     viewBox="-124.5917091 -88.0001764 1079.7948122 396.0007938"
     preserveAspectRatio="xMidYMid meet">
  <rect x="-124.5917091" y="-88.0001764" width="1079.7948122" height="396.0007938" fill="#000000"/>
  <g transform="translate(-257.331936,1220.000000) scale(0.100000,-0.100000)"
fill="#ffffff" stroke="none">
<path d="M4837 12189 c-14 -8 -17 -26 -17 -112 0 -67 4 -107 12 -115 15 -15
90 -16 141 -1 26 7 44 21 57 42 38 62 18 154 -37 175 -41 15 -136 22 -156 11z
m141 -56 c15 -16 22 -37 22 -62 0 -43 -27 -75 -73 -86 -45 -12 -57 7 -57 91 0
59 3 75 18 83 24 14 63 3 90 -26z"/>
<path d="M6222 12188 c-25 -7 -37 -18 -49 -46 -22 -53 -13 -127 20 -160 21
-20 38 -26 84 -29 36 -2 68 1 83 9 22 12 25 20 25 63 0 44 -3 50 -22 53 -21 3
-23 -1 -23 -37 0 -30 -5 -43 -19 -51 -30 -16 -47 -12 -80 16 -26 21 -31 33
-31 69 0 32 6 48 26 69 15 14 35 26 46 26 10 0 32 -7 47 -15 24 -12 31 -12 40
-1 8 10 8 16 -1 23 -19 15 -108 22 -146 11z"/>
<path d="M6585 12188 c-2 -7 -6 -55 -10 -105 -6 -98 3 -137 30 -127 10 4 15
20 15 48 0 54 9 86 25 86 7 0 31 -27 54 -60 79 -113 103 -101 99 46 -2 67 -7
99 -15 102 -10 3 -13 -13 -13 -57 0 -35 -5 -63 -12 -67 -7 -5 -22 6 -37 27
-38 51 -107 119 -120 119 -6 0 -13 -6 -16 -12z"/>
<path d="M5226 12174 c-3 -9 -6 -57 -6 -109 0 -67 4 -96 14 -104 19 -16 138
-10 144 7 2 8 -10 12 -41 12 -48 0 -71 17 -65 47 2 13 14 19 45 21 23 2 47 10
53 17 14 17 9 20 -55 33 -31 6 -41 13 -43 30 -4 25 13 34 66 36 19 1 37 7 40
14 3 9 -16 12 -71 12 -59 0 -76 -3 -81 -16z"/>
<path d="M5593 12178 c-6 -7 -14 -23 -17 -35 -9 -28 30 -73 75 -88 18 -6 37
-19 43 -29 9 -14 6 -21 -13 -37 -22 -18 -25 -18 -51 -2 -15 9 -36 13 -45 9
-41 -15 43 -55 100 -47 11 1 30 9 43 17 16 10 22 24 22 49 0 41 -23 65 -77 80
-45 13 -62 37 -43 60 11 13 24 15 63 10 39 -6 48 -4 45 6 -6 19 -131 25 -145
7z"/>
<path d="M5936 12168 c-3 -13 -6 -62 -6 -109 0 -61 4 -90 14 -98 27 -23 37 12
34 120 -3 86 -6 104 -19 107 -10 2 -19 -6 -23 -20z"/>
<path d="M7007 12183 c-4 -3 -7 -52 -7 -108 0 -76 4 -106 14 -114 19 -16 138
-10 144 7 2 8 -10 12 -41 12 -30 0 -49 6 -60 18 -10 10 -17 23 -17 29 0 14 24
23 65 23 32 0 61 20 48 33 -3 4 -23 7 -44 7 -21 0 -47 8 -59 18 l-23 19 21 21
c15 15 34 22 62 22 22 0 40 5 40 10 0 11 -133 14 -143 3z"/>
<path d="M7362 12073 l3 -118 55 -3 c129 -8 183 47 158 163 -14 63 -35 75
-136 75 l-83 0 3 -117z m161 59 c20 -19 27 -35 27 -62 0 -29 -6 -41 -30 -58
-41 -31 -83 -38 -100 -17 -18 22 -14 146 5 161 22 16 66 5 98 -24z"/>
<path d="M7986 12182 c-8 -13 -9 -209 -2 -221 9 -14 114 -14 154 0 22 8 33 19
37 41 5 23 2 35 -15 53 -22 23 -22 26 -6 49 20 32 20 50 0 70 -11 12 -35 16
-89 16 -41 0 -76 -4 -79 -8z m115 -22 c27 -15 24 -48 -6 -62 -51 -23 -105 34
-57 61 22 13 39 13 63 1z m9 -118 c29 -24 17 -50 -28 -58 -28 -5 -38 -3 -49
11 -17 24 -16 30 3 49 20 21 47 20 74 -2z"/>
<path d="M8340 12180 c0 -6 14 -37 30 -70 20 -40 30 -74 30 -104 0 -46 14 -66
32 -48 6 6 15 34 19 63 5 33 20 69 39 95 16 23 30 49 30 58 0 29 -29 16 -55
-24 -14 -22 -29 -40 -34 -40 -5 0 -24 18 -41 40 -31 39 -50 50 -50 30z"/>
<path d="M2584 11076 c-3 -8 -1 -23 5 -35 7 -13 11 -177 11 -502 0 -428 -2
-484 -16 -500 -9 -10 -13 -23 -9 -28 7 -13 223 -15 243 -3 10 7 13 118 13 531
0 380 -4 527 -12 537 -8 10 -40 14 -121 14 -85 0 -110 -3 -114 -14z"/>
<path d="M3100 11079 c-8 -6 -11 -12 -5 -15 104 -45 126 -61 157 -114 18 -30
41 -56 51 -58 15 -3 17 6 17 82 0 112 -5 116 -118 116 -48 0 -94 -5 -102 -11z"/>
<path d="M3726 11081 c-3 -4 8 -26 24 -47 16 -21 29 -43 30 -49 0 -10 62 -140
107 -225 14 -25 32 -63 41 -85 9 -22 33 -71 53 -110 20 -38 39 -82 42 -96 4
-14 19 -43 33 -65 15 -21 36 -64 46 -94 11 -30 25 -61 31 -69 7 -8 24 -41 38
-74 14 -34 31 -63 37 -65 12 -4 17 6 70 138 57 142 57 133 12 212 -22 38 -40
74 -40 80 0 6 -16 40 -35 77 -19 36 -46 91 -60 121 -13 30 -29 62 -34 70 -17
25 -111 236 -111 248 0 6 -10 18 -22 26 -17 12 -50 16 -140 16 -64 0 -119 -4
-122 -9z"/>
<path d="M4585 11073 c-4 -10 -7 -242 -6 -516 2 -454 1 -500 -14 -517 -9 -10
-14 -24 -10 -29 7 -13 243 -15 262 -3 10 6 10 12 -2 28 -12 16 -14 93 -15 502
0 407 2 488 15 512 13 25 13 29 -1 34 -9 3 -62 6 -119 6 -88 0 -104 -2 -110
-17z"/>
<path d="M5244 11078 c-3 -5 1 -20 10 -33 14 -21 16 -83 16 -509 l0 -486 -26
-16 c-14 -10 -21 -21 -16 -26 5 -5 67 -7 138 -6 l129 3 2 529 c2 369 0 533 -8
542 -8 10 -42 13 -125 12 -63 -1 -117 -5 -120 -10z"/>
<path d="M5765 11080 c-9 -15 2 -28 33 -35 52 -12 106 -58 135 -115 46 -91 56
-78 49 60 -3 47 -10 88 -16 92 -17 12 -194 9 -201 -2z"/>
<path d="M6435 11079 c-4 -5 0 -18 9 -28 14 -16 16 -73 16 -508 0 -424 -2
-492 -15 -503 -8 -7 -15 -19 -15 -26 0 -11 27 -14 134 -14 74 0 137 4 140 9 3
5 -1 22 -9 37 -13 25 -15 101 -13 521 1 390 -1 495 -11 507 -11 13 -36 16
-122 16 -65 0 -110 -4 -114 -11z"/>
<path d="M8045 11082 c-18 -12 -57 -85 -71 -134 -14 -46 -14 -48 26 -136 22
-49 40 -98 40 -108 0 -11 13 -45 29 -76 16 -31 39 -92 52 -135 12 -43 26 -83
30 -88 4 -6 27 -60 50 -120 80 -213 81 -217 70 -243 -6 -13 -9 -28 -6 -33 7
-10 268 -13 278 -3 3 4 -12 42 -34 85 -21 43 -50 113 -64 156 -14 42 -29 81
-34 87 -4 6 -25 65 -46 131 -20 66 -47 143 -60 170 -13 28 -28 69 -34 92 -6
22 -23 67 -37 99 -14 31 -34 84 -45 118 -30 89 -51 127 -77 137 -28 11 -53 11
-67 1z"/>
<path d="M8880 11080 c-13 -8 -13 -13 2 -38 15 -25 17 -76 18 -499 l0 -471
-25 -30 c-21 -25 -23 -31 -9 -36 23 -9 242 -7 248 2 2 4 7 235 11 512 3 278 7
519 8 535 l2 30 -120 3 c-66 1 -127 -2 -135 -8z"/>
<path d="M9942 11078 c-5 -8 -6 -22 -1 -33 4 -11 8 -238 8 -505 0 -406 -2
-488 -14 -504 -8 -10 -12 -23 -9 -27 6 -10 214 -12 238 -3 14 5 16 61 16 529
0 463 -2 525 -16 539 -12 12 -38 16 -113 16 -67 0 -102 -4 -109 -12z"/>
<path d="M6866 11072 c-3 -5 12 -21 33 -35 53 -35 91 -104 102 -188 14 -94 -1
-168 -43 -222 -18 -23 -40 -47 -48 -54 -8 -7 -39 -19 -67 -28 -29 -9 -53 -21
-53 -27 0 -6 16 -26 35 -45 19 -19 35 -40 35 -48 0 -13 129 -273 149 -300 4
-5 15 -31 25 -58 10 -26 26 -52 36 -57 26 -14 257 -13 266 1 3 6 -6 23 -20 38
-25 26 -74 111 -146 256 -62 124 -91 160 -145 180 -25 10 -45 24 -45 31 0 12
57 34 90 34 41 0 133 82 161 145 21 46 24 120 7 177 -14 46 -77 122 -122 145
-81 43 -236 78 -250 55z"/>
<path d="M10400 11071 c0 -6 17 -19 38 -31 60 -34 117 -107 147 -191 15 -41
35 -125 43 -188 13 -94 14 -133 5 -225 -7 -62 -18 -128 -26 -147 -9 -19 -23
-56 -33 -83 -20 -58 -80 -127 -142 -163 -49 -29 -42 -44 16 -32 56 11 91 24
162 57 93 45 169 123 222 230 l43 87 3 132 c3 106 0 143 -14 185 -19 60 -65
147 -104 196 -42 55 -120 107 -217 145 -91 36 -143 46 -143 28z"/>
<path d="M3092 10688 c-5 -7 -13 -23 -16 -36 -7 -20 -61 -67 -112 -98 -16 -9
-11 -15 40 -49 35 -23 64 -52 74 -72 9 -18 22 -33 29 -33 10 0 13 33 13 150 0
83 -4 150 -9 150 -5 0 -13 -6 -19 -12z"/>
<path d="M5715 10617 c-27 -27 -60 -53 -72 -58 -13 -4 -23 -13 -23 -18 0 -5
13 -14 29 -20 15 -7 48 -32 72 -56 24 -24 47 -41 51 -39 10 7 10 232 1 237 -5
2 -30 -18 -58 -46z"/>
<path d="M5986 10223 c-4 -11 -24 -44 -47 -74 -25 -34 -60 -65 -97 -86 -31
-18 -67 -33 -79 -33 -14 0 -23 -6 -23 -15 0 -13 19 -15 133 -13 l132 3 3 109
c1 60 -2 114 -7 119 -5 5 -11 2 -15 -10z"/>
<path d="M9540 10203 c-13 -51 -83 -124 -148 -157 -29 -15 -50 -31 -47 -36 3
-6 55 -10 115 -10 89 0 109 3 114 16 3 9 6 55 6 104 0 90 -5 120 -21 120 -4 0
-13 -17 -19 -37z"/>
<path d="M3301 10193 c-23 -54 -87 -112 -156 -144 -44 -19 -64 -34 -58 -40 5
-5 62 -8 129 -7 l119 3 3 108 c2 87 0 107 -11 107 -8 0 -20 -12 -26 -27z"/>
<path d="M3741 10118 c-16 -35 -38 -72 -50 -82 -11 -10 -18 -23 -15 -27 6 -10
197 -12 207 -3 3 4 -16 27 -43 51 -41 37 -50 51 -50 78 0 57 -19 50 -49 -17z"/>
<path d="M7675 10108 c-8 -18 -23 -46 -34 -62 -11 -17 -18 -33 -15 -38 8 -12
152 -10 160 3 3 6 -5 21 -20 33 -14 11 -33 38 -41 59 -8 20 -20 37 -26 37 -5
0 -16 -15 -24 -32z"/>
</g>
</svg>